<svg width="234" height="50" viewBox="0 0 234 50" fill="none" xmlns="http://www.w3.org/2000/svg">
<path fill-rule="evenodd" clip-rule="evenodd" d="M25.2176 5L42.9711 15.25V35.75L25.2176 46L7.4641 35.75V15.25L25.2176 5ZM36.5625 27.7048L41 32.7097L35.5625 34.1799L37 37.9961L31.8438 36.5572L30 42L25.0625 38.7155L22.75 42L20.6562 37.9961H15L15.5 34.3675H10.625L12.9062 28.956L9 26.7664L11.9688 24.3891L9.03125 20.1349L15 18.6647V14.0039L17.7188 15.7869L19.125 10L24.1562 14.2229L28.7812 10L29.7812 13.5973L33.375 11.5953L34.25 16.913L39 16.0059L36.875 20.8231L40.9688 23.7322L36.5625 27.7048Z" fill="#04D361"/>
<path fill-rule="evenodd" clip-rule="evenodd" d="M46.4352 13.25L25.2176 1L4 13.25V37.75L25.2176 50L46.4352 37.75V13.25ZM44.7032 14.25L25.2176 3L5.73206 14.25V36.75L25.2176 48L44.7032 36.75V14.25Z" fill="#04D361"/>
<path d="M35.7585 34.3656L36.917 37.2603L32.3985 36.0736L31.956 35.9574L31.801 36.3879L30.0521 41.2471L25.3317 38.2917L24.9417 38.0476L24.666 38.416L22.6715 41.0823L20.8218 37.7533L20.679 37.4961H20.3848H14.9535L15.401 34.44L15.4848 33.8675H14.9062H10.4984L12.6067 29.1604L12.7983 28.7325L12.3837 28.5138L8.92989 26.6916L11.4552 24.7883L11.8494 24.4913L11.5574 24.0933L8.88502 20.4507L14.4879 19.1518L14.875 19.0621V18.6647V14.9001L17.0011 16.2124L17.5782 16.5686L17.7478 15.9119L19.0501 10.8681L23.7936 14.6152L24.1169 14.8706L24.4294 14.6021L28.7571 10.8831L29.6006 13.7389L29.773 14.3228L30.3123 14.0401L33.5239 12.3562L34.3356 16.9991L34.4221 17.494L34.9166 17.4051L39.012 16.669L37.1644 20.6109L36.9821 20.9999L37.3392 21.2387L41.1382 23.7795L36.9617 27.3235L36.5601 27.6643L36.9212 28.0476L41.0539 32.4345L36.0993 33.6953L35.5465 33.836L35.7585 34.3656Z" stroke="#261E14" stroke-opacity="0.6"/>
<path d="M34.4344 33.8449L35.4344 36.4996L31.5504 35.4158L31.0944 35.2885L30.9424 35.7369L29.4227 40.2233L25.3355 37.5045L24.9301 37.2348L24.6498 37.633L22.9538 40.0418L21.3708 37.0146L21.2305 36.7463H20.9277H16.1986L16.5891 33.9128L16.6674 33.3446H16.0938H12.2768L14.1228 28.9655L14.2965 28.5536L13.9066 28.3351L10.8916 26.6451L13.0957 24.88L13.4593 24.5889L13.1946 24.2056L10.8525 20.8137L15.7446 19.6087L16.125 19.515V19.1232V15.6795L17.8996 16.8433L18.4923 17.232L18.6597 16.5433L19.7878 11.9009L23.8875 15.3419L24.2228 15.6234L24.5461 15.3282L28.2811 11.9179L29.0007 14.5064L29.1708 15.1184L29.7257 14.8092L32.4737 13.2785L33.1785 17.5621L33.2618 18.0683L33.7657 17.9721L37.283 17.3003L35.6753 20.9448L35.5107 21.318L35.8432 21.5542L39.1727 23.9202L35.505 27.2269L35.1368 27.5589L35.4657 27.93L39.0906 32.0183L34.7718 33.186L34.2404 33.3297L34.4344 33.8449Z" stroke="white"/>
<path d="M33.4914 29.3931C33.307 27.5457 32.8949 25.9972 32.8036 21.9988C32.7386 19.1679 29.3019 18.9501 28.4086 19.9094C27.3962 18.6683 24.6864 18.6395 23.6752 20.1835C22.8897 19.7519 20.7874 19.6588 19.9188 20.7298C19.9188 20.7298 17.342 20.3183 16.1751 24.615C15.7559 26.1576 16.2101 28.2031 16.2946 28.6272C16.8847 31.5867 19.3577 31.0159 19.8556 30.7271C20.699 32.8971 22.8816 32.5066 23.7595 31.8684C23.8102 33.1558 24.8593 33.7744 25.5284 33.5306C27.489 32.8157 29.1246 32.7189 30.4178 32.7702C31.0382 32.7944 31.5253 32.4966 31.8006 31.9597C32.7704 31.4542 33.5937 30.42 33.4914 29.3931ZM28.9633 29.6841C29.2573 27.9931 28.6194 25.4865 28.8466 23.5779C27.925 25.0146 28.6075 29.0819 28.2207 30.7309C27.9043 32.0784 25.4074 31.6569 24.635 30.0382C24.3673 27.5629 24.7587 26.1279 24.0841 23.5779C24.1477 26.6608 23.6714 27.235 23.9893 30.2316C23.2531 30.9876 20.7113 30.4556 20.583 29.1755C20.4118 27.4669 20.7661 26.125 20.2624 24.4683C20.2624 26.0343 19.9527 26.8696 20.1046 29.1874C20.1055 29.2017 19.6508 29.5491 18.9762 29.5491C16.2139 29.5491 16.4545 25.4579 16.9092 24.0291C17.5672 21.9589 19.3029 20.7528 20.1994 21.2259C20.6448 20.1873 23.1858 20.0957 23.6235 21.0687C24.0015 19.277 27.6208 19.4223 28.5833 21.0203C29.229 19.7253 32.1876 20.1126 32.2186 22.0085C32.2871 26.1089 32.8847 28.0287 32.8611 29.8238C31.8487 31.0725 30.0597 30.9619 28.9633 29.6841Z" fill="white"/>
<path d="M61.5234 26V8.9375H67.5C69.5703 8.9375 71.1406 9.33594 72.2109 10.1328C73.2812 10.9219 73.8164 12.082 73.8164 13.6133C73.8164 14.4492 73.6016 15.1875 73.1719 15.8281C72.7422 16.4609 72.1445 16.9258 71.3789 17.2227C72.2539 17.4414 72.9414 17.8828 73.4414 18.5469C73.9492 19.2109 74.2031 20.0234 74.2031 20.9844C74.2031 22.625 73.6797 23.8672 72.6328 24.7109C71.5859 25.5547 70.0938 25.9844 68.1562 26H61.5234ZM65.0391 18.5703V23.1758H68.0508C68.8789 23.1758 69.5234 22.9805 69.9844 22.5898C70.4531 22.1914 70.6875 21.6445 70.6875 20.9492C70.6875 19.3867 69.8789 18.5938 68.2617 18.5703H65.0391ZM65.0391 16.0859H67.6406C69.4141 16.0547 70.3008 15.3477 70.3008 13.9648C70.3008 13.1914 70.0742 12.6367 69.6211 12.3008C69.1758 11.957 68.4688 11.7852 67.5 11.7852H65.0391V16.0859ZM83.168 19.7539H80.3672V26H76.8516V8.9375H83.1914C85.207 8.9375 86.7617 9.38672 87.8555 10.2852C88.9492 11.1836 89.4961 12.4531 89.4961 14.0938C89.4961 15.2578 89.2422 16.2305 88.7344 17.0117C88.2344 17.7852 87.4727 18.4023 86.4492 18.8633L90.1406 25.8359V26H86.3672L83.168 19.7539ZM80.3672 16.9062H83.2031C84.0859 16.9062 84.7695 16.6836 85.2539 16.2383C85.7383 15.7852 85.9805 15.1641 85.9805 14.375C85.9805 13.5703 85.75 12.9375 85.2891 12.4766C84.8359 12.0156 84.1367 11.7852 83.1914 11.7852H80.3672V16.9062ZM106.195 17.8555C106.195 19.5352 105.898 21.0078 105.305 22.2734C104.711 23.5391 103.859 24.5156 102.75 25.2031C101.648 25.8906 100.383 26.2344 98.9531 26.2344C97.5391 26.2344 96.2773 25.8945 95.168 25.2148C94.0586 24.5352 93.1992 23.5664 92.5898 22.3086C91.9805 21.043 91.6719 19.5898 91.6641 17.9492V17.1055C91.6641 15.4258 91.9648 13.9492 92.5664 12.6758C93.1758 11.3945 94.0312 10.4141 95.1328 9.73438C96.2422 9.04688 97.5078 8.70312 98.9297 8.70312C100.352 8.70312 101.613 9.04688 102.715 9.73438C103.824 10.4141 104.68 11.3945 105.281 12.6758C105.891 13.9492 106.195 15.4219 106.195 17.0938V17.8555ZM102.633 17.082C102.633 15.293 102.312 13.9336 101.672 13.0039C101.031 12.0742 100.117 11.6094 98.9297 11.6094C97.75 11.6094 96.8398 12.0703 96.1992 12.9922C95.5586 13.9062 95.2344 15.25 95.2266 17.0234V17.8555C95.2266 19.5977 95.5469 20.9492 96.1875 21.9102C96.8281 22.8711 97.75 23.3516 98.9531 23.3516C100.133 23.3516 101.039 22.8906 101.672 21.9688C102.305 21.0391 102.625 19.6875 102.633 17.9141V17.082ZM120.586 11.7852H115.359V26H111.844V11.7852H106.688V8.9375H120.586V11.7852ZM136.488 26H132.973V18.6875H126.117V26H122.602V8.9375H126.117V15.8516H132.973V8.9375H136.488V26ZM149.836 18.6055H143.086V23.1758H151.008V26H139.57V8.9375H150.984V11.7852H143.086V15.8516H149.836V18.6055ZM159.387 19.7539H156.586V26H153.07V8.9375H159.41C161.426 8.9375 162.98 9.38672 164.074 10.2852C165.168 11.1836 165.715 12.4531 165.715 14.0938C165.715 15.2578 165.461 16.2305 164.953 17.0117C164.453 17.7852 163.691 18.4023 162.668 18.8633L166.359 25.8359V26H162.586L159.387 19.7539ZM156.586 16.9062H159.422C160.305 16.9062 160.988 16.6836 161.473 16.2383C161.957 15.7852 162.199 15.1641 162.199 14.375C162.199 13.5703 161.969 12.9375 161.508 12.4766C161.055 12.0156 160.355 11.7852 159.41 11.7852H156.586V16.9062ZM178.031 22.4844H171.867L170.695 26H166.957L173.309 8.9375H176.566L182.953 26H179.215L178.031 22.4844ZM172.816 19.6367H177.082L174.938 13.25L172.816 19.6367ZM197.789 23.8438C197.156 24.6016 196.262 25.1914 195.105 25.6133C193.949 26.0273 192.668 26.2344 191.262 26.2344C189.785 26.2344 188.488 25.9141 187.371 25.2734C186.262 24.625 185.402 23.6875 184.793 22.4609C184.191 21.2344 183.883 19.793 183.867 18.1367V16.9766C183.867 15.2734 184.152 13.8008 184.723 12.5586C185.301 11.3086 186.129 10.3555 187.207 9.69922C188.293 9.03516 189.562 8.70312 191.016 8.70312C193.039 8.70312 194.621 9.1875 195.762 10.1562C196.902 11.1172 197.578 12.5195 197.789 14.3633H194.367C194.211 13.3867 193.863 12.6719 193.324 12.2188C192.793 11.7656 192.059 11.5391 191.121 11.5391C189.926 11.5391 189.016 11.9883 188.391 12.8867C187.766 13.7852 187.449 15.1211 187.441 16.8945V17.9844C187.441 19.7734 187.781 21.125 188.461 22.0391C189.141 22.9531 190.137 23.4102 191.449 23.4102C192.77 23.4102 193.711 23.1289 194.273 22.5664V19.625H191.074V17.0352H197.789V23.8438ZM210.914 18.6055H204.164V23.1758H212.086V26H200.648V8.9375H212.062V11.7852H204.164V15.8516H210.914V18.6055ZM218.742 8.9375L223.125 21.3125L227.484 8.9375H232.102V26H228.574V21.3359L228.926 13.2852L224.32 26H221.906L217.312 13.2969L217.664 21.3359V26H214.148V8.9375H218.742Z" fill="white"/>
<path d="M61 31H106V43H76L61 31Z" fill="white"/>
<path d="M233 31H188V43H218L233 31Z" fill="white"/>
<rect x="61" y="29" width="172" height="1" fill="white"/>
<path d="M118.873 38.8027C118.959 38.1777 118.635 37.7207 117.901 37.4316L116.887 37.0625L116.547 36.916C115.407 36.3965 114.873 35.666 114.948 34.7246C114.987 34.252 115.149 33.834 115.434 33.4707C115.719 33.1074 116.096 32.8281 116.565 32.6328C117.038 32.4336 117.54 32.3398 118.071 32.3516C118.586 32.3633 119.045 32.4785 119.448 32.6973C119.854 32.916 120.163 33.2227 120.373 33.6172C120.584 34.0078 120.678 34.4492 120.655 34.9414L119.547 34.9355C119.586 34.4121 119.469 34.0078 119.196 33.7227C118.922 33.4336 118.532 33.2852 118.024 33.2773C117.489 33.2695 117.041 33.3945 116.682 33.6523C116.323 33.9102 116.116 34.2617 116.061 34.707C115.983 35.2891 116.34 35.7305 117.133 36.0312L118.006 36.3418L118.446 36.5293C119.547 37.0371 120.057 37.791 119.975 38.791C119.932 39.2715 119.77 39.6875 119.489 40.0391C119.207 40.3867 118.825 40.6562 118.34 40.8477C117.86 41.0391 117.342 41.1289 116.788 41.1172C116.252 41.1133 115.762 41 115.317 40.7773C114.875 40.5508 114.54 40.2422 114.309 39.8516C114.079 39.4609 113.977 39.0176 114.004 38.5215L115.106 38.5273C115.071 39.0352 115.207 39.4395 115.516 39.7402C115.829 40.0371 116.268 40.1895 116.834 40.1973C117.401 40.2051 117.868 40.082 118.235 39.8281C118.602 39.5742 118.815 39.2324 118.873 38.8027Z" fill="white"/>
<path d="M127.557 38.2812C127.393 39.1641 126.993 39.8633 126.356 40.3789C125.723 40.8945 124.963 41.1406 124.077 41.1172C123.549 41.1055 123.088 40.9766 122.694 40.7305C122.299 40.4805 121.993 40.123 121.774 39.6582C121.555 39.1895 121.434 38.6719 121.411 38.1055C121.395 37.7852 121.409 37.4727 121.452 37.168L121.551 36.4648C121.735 35.1836 122.184 34.1738 122.899 33.4355C123.618 32.6934 124.491 32.332 125.518 32.3516C126.319 32.3672 126.954 32.627 127.422 33.1309C127.891 33.6309 128.139 34.3262 128.166 35.2168H127.071C127.02 34.0215 126.551 33.377 125.665 33.2832L125.471 33.2715C124.733 33.252 124.116 33.5273 123.62 34.0977C123.127 34.6641 122.809 35.4395 122.665 36.4238L122.536 37.3086L122.5 37.8242C122.477 38.543 122.604 39.1152 122.881 39.541C123.163 39.9629 123.579 40.1816 124.129 40.1973C124.723 40.2168 125.213 40.0742 125.6 39.7695C125.991 39.4648 126.288 38.9746 126.491 38.2988L127.557 38.2812Z" fill="white"/>
<path d="M133.674 38.7734H130.217L129.051 41H127.873L132.508 32.4688H133.475L135.163 41H134.079L133.674 38.7734ZM130.704 37.8477H133.51L132.801 33.8691L130.704 37.8477Z" fill="white"/>
<path d="M142.715 41H141.649L138.602 34.3789L137.454 41H136.346L137.829 32.4688H138.895L141.948 39.1191L143.102 32.4688H144.198L142.715 41Z" fill="white"/>
<path d="M145.967 40.0801H149.893L149.729 41H144.702L146.184 32.4688H147.291L145.967 40.0801Z" fill="white"/>
<path d="M156.127 38.7734H152.67L151.504 41H150.327L154.961 32.4688H155.928L157.616 41H156.532L156.127 38.7734ZM153.157 37.8477H155.963L155.254 33.8691L153.157 37.8477Z" fill="white"/>
<path d="M165.081 33.3945H162.426L161.108 41H160.012L161.331 33.3945H158.676L158.84 32.4688H165.245L165.081 33.3945Z" fill="white"/>
<path d="M168.01 41.1172C167.467 41.1055 166.995 40.9746 166.592 40.7246C166.194 40.4746 165.879 40.1074 165.649 39.623C165.418 39.1348 165.291 38.5879 165.268 37.9824C165.245 37.5098 165.297 36.9258 165.426 36.2305C165.555 35.5352 165.778 34.9082 166.094 34.3496C166.411 33.791 166.795 33.3438 167.248 33.0078C167.862 32.5547 168.561 32.3359 169.346 32.3516C170.178 32.3672 170.834 32.6562 171.315 33.2188C171.795 33.7773 172.053 34.5352 172.088 35.4922C172.104 35.9023 172.061 36.4238 171.959 37.0566C171.862 37.6895 171.684 38.2773 171.426 38.8203C171.172 39.3633 170.848 39.8184 170.454 40.1855C169.766 40.8262 168.952 41.1367 168.01 41.1172ZM171.004 35.7617C171.028 34.9922 170.893 34.3965 170.6 33.9746C170.307 33.5488 169.872 33.3281 169.293 33.3125C168.77 33.2969 168.301 33.4375 167.887 33.7344C167.477 34.0312 167.139 34.4766 166.873 35.0703C166.612 35.6602 166.446 36.4082 166.375 37.3145L166.358 37.6953C166.334 38.4609 166.471 39.0605 166.768 39.4941C167.065 39.9277 167.497 40.1523 168.063 40.168C168.801 40.1875 169.413 39.9219 169.897 39.3711C170.385 38.8164 170.709 38.0391 170.87 37.0391C170.948 36.5469 170.993 36.1211 171.004 35.7617Z" fill="white"/>
<path d="M176.612 37.5488H174.643L174.045 41H172.938L174.42 32.4688L176.987 32.4746C177.881 32.4785 178.563 32.7051 179.032 33.1543C179.5 33.6035 179.698 34.2148 179.623 34.9883C179.581 35.5234 179.385 35.9941 179.038 36.4004C178.694 36.8066 178.235 37.1133 177.661 37.3203L178.985 40.9238L178.979 41H177.807L176.612 37.5488ZM174.801 36.6289L176.418 36.6348C176.981 36.6348 177.456 36.4863 177.842 36.1895C178.229 35.8887 178.456 35.4883 178.522 34.9883C178.581 34.5 178.483 34.1172 178.229 33.8398C177.975 33.5625 177.588 33.416 177.069 33.4004L175.364 33.3945L174.801 36.6289Z" fill="white"/>
</svg>
