<svg width="241" height="58" viewBox="0 0 241 58" fill="none" xmlns="http://www.w3.org/2000/svg">
<g filter="url(#filter0_d)">
<path fill-rule="evenodd" clip-rule="evenodd" d="M29.2176 5L46.9711 15.25V35.75L29.2176 46L11.4641 35.75V15.25L29.2176 5ZM40.5625 27.7048L45 32.7097L39.5625 34.1799L41 37.9961L35.8438 36.5572L34 42L29.0625 38.7155L26.75 42L24.6562 37.9961H19L19.5 34.3675H14.625L16.9062 28.956L13 26.7664L15.9688 24.3891L13.0312 20.1349L19 18.6647V14.0039L21.7188 15.7869L23.125 10L28.1562 14.2229L32.7812 10L33.7812 13.5973L37.375 11.5953L38.25 16.913L43 16.0059L40.875 20.8231L44.9688 23.7322L40.5625 27.7048Z" fill="#04D361"/>
<path fill-rule="evenodd" clip-rule="evenodd" d="M50.4352 13.25L29.2176 1L8 13.25V37.75L29.2176 50L50.4352 37.75V13.25ZM48.7032 14.25L29.2176 3L9.73206 14.25V36.75L29.2176 48L48.7032 36.75V14.25Z" fill="#04D361"/>
<path d="M39.7585 34.3656L40.917 37.2603L36.3985 36.0736L35.956 35.9574L35.801 36.3879L34.0521 41.2471L29.3317 38.2917L28.9417 38.0476L28.666 38.416L26.6715 41.0823L24.8218 37.7533L24.679 37.4961H24.3848H18.9535L19.401 34.44L19.4848 33.8675H18.9062H14.4984L16.6067 29.1604L16.7983 28.7325L16.3837 28.5138L12.9299 26.6916L15.4552 24.7883L15.8494 24.4913L15.5574 24.0933L12.885 20.4507L18.4879 19.1518L18.875 19.0621V18.6647V14.9001L21.0011 16.2124L21.5782 16.5686L21.7478 15.9119L23.0501 10.8681L27.7936 14.6152L28.1169 14.8706L28.4294 14.6021L32.7571 10.8831L33.6006 13.7389L33.773 14.3228L34.3123 14.0401L37.5239 12.3562L38.3356 16.9991L38.4221 17.494L38.9166 17.4051L43.012 16.669L41.1644 20.6109L40.9821 20.9999L41.3392 21.2387L45.1382 23.7795L40.9617 27.3235L40.5601 27.6643L40.9212 28.0476L45.0539 32.4345L40.0993 33.6953L39.5465 33.836L39.7585 34.3656Z" stroke="#261E14" stroke-opacity="0.6"/>
<path d="M38.4344 33.8449L39.4344 36.4996L35.5504 35.4158L35.0944 35.2885L34.9424 35.7369L33.4227 40.2233L29.3355 37.5045L28.9301 37.2348L28.6498 37.633L26.9538 40.0418L25.3708 37.0146L25.2305 36.7463H24.9277H20.1986L20.5891 33.9128L20.6674 33.3446H20.0938H16.2768L18.1228 28.9655L18.2965 28.5536L17.9066 28.3351L14.8916 26.6451L17.0957 24.88L17.4593 24.5889L17.1946 24.2056L14.8525 20.8137L19.7446 19.6087L20.125 19.515V19.1232V15.6795L21.8996 16.8433L22.4923 17.232L22.6597 16.5433L23.7878 11.9009L27.8875 15.3419L28.2228 15.6234L28.5461 15.3282L32.2811 11.9179L33.0007 14.5064L33.1708 15.1184L33.7257 14.8092L36.4737 13.2785L37.1785 17.5621L37.2618 18.0683L37.7657 17.9721L41.283 17.3003L39.6753 20.9448L39.5107 21.318L39.8432 21.5542L43.1727 23.9202L39.505 27.2269L39.1368 27.5589L39.4657 27.93L43.0906 32.0183L38.7718 33.186L38.2404 33.3297L38.4344 33.8449Z" stroke="white"/>
<path d="M37.4914 29.3931C37.307 27.5457 36.8949 25.9972 36.8036 21.9988C36.7386 19.1679 33.3019 18.9501 32.4086 19.9094C31.3962 18.6683 28.6864 18.6395 27.6752 20.1835C26.8897 19.7519 24.7874 19.6588 23.9188 20.7298C23.9188 20.7298 21.342 20.3183 20.1751 24.615C19.7559 26.1576 20.2101 28.2031 20.2946 28.6272C20.8847 31.5867 23.3577 31.0159 23.8556 30.7271C24.699 32.8971 26.8816 32.5066 27.7595 31.8684C27.8102 33.1558 28.8593 33.7744 29.5284 33.5306C31.489 32.8157 33.1246 32.7189 34.4178 32.7702C35.0382 32.7944 35.5253 32.4966 35.8006 31.9597C36.7704 31.4542 37.5937 30.42 37.4914 29.3931ZM32.9633 29.6841C33.2573 27.9931 32.6194 25.4865 32.8466 23.5779C31.925 25.0146 32.6075 29.0819 32.2207 30.7309C31.9043 32.0784 29.4074 31.6569 28.635 30.0382C28.3673 27.5629 28.7587 26.1279 28.0841 23.5779C28.1477 26.6608 27.6714 27.235 27.9893 30.2316C27.2531 30.9876 24.7113 30.4556 24.583 29.1755C24.4118 27.4669 24.7661 26.125 24.2624 24.4683C24.2624 26.0343 23.9527 26.8696 24.1046 29.1874C24.1055 29.2017 23.6508 29.5491 22.9762 29.5491C20.2139 29.5491 20.4545 25.4579 20.9092 24.0291C21.5672 21.9589 23.3029 20.7528 24.1994 21.2259C24.6448 20.1873 27.1858 20.0957 27.6235 21.0687C28.0015 19.277 31.6208 19.4223 32.5833 21.0203C33.229 19.7253 36.1876 20.1126 36.2186 22.0085C36.2871 26.1089 36.8847 28.0287 36.8611 29.8238C35.8487 31.0725 34.0597 30.9619 32.9633 29.6841Z" fill="white"/>
<path d="M65.5234 26V8.9375H71.5C73.5703 8.9375 75.1406 9.33594 76.2109 10.1328C77.2812 10.9219 77.8164 12.082 77.8164 13.6133C77.8164 14.4492 77.6016 15.1875 77.1719 15.8281C76.7422 16.4609 76.1445 16.9258 75.3789 17.2227C76.2539 17.4414 76.9414 17.8828 77.4414 18.5469C77.9492 19.2109 78.2031 20.0234 78.2031 20.9844C78.2031 22.625 77.6797 23.8672 76.6328 24.7109C75.5859 25.5547 74.0938 25.9844 72.1562 26H65.5234ZM69.0391 18.5703V23.1758H72.0508C72.8789 23.1758 73.5234 22.9805 73.9844 22.5898C74.4531 22.1914 74.6875 21.6445 74.6875 20.9492C74.6875 19.3867 73.8789 18.5938 72.2617 18.5703H69.0391ZM69.0391 16.0859H71.6406C73.4141 16.0547 74.3008 15.3477 74.3008 13.9648C74.3008 13.1914 74.0742 12.6367 73.6211 12.3008C73.1758 11.957 72.4688 11.7852 71.5 11.7852H69.0391V16.0859ZM87.168 19.7539H84.3672V26H80.8516V8.9375H87.1914C89.207 8.9375 90.7617 9.38672 91.8555 10.2852C92.9492 11.1836 93.4961 12.4531 93.4961 14.0938C93.4961 15.2578 93.2422 16.2305 92.7344 17.0117C92.2344 17.7852 91.4727 18.4023 90.4492 18.8633L94.1406 25.8359V26H90.3672L87.168 19.7539ZM84.3672 16.9062H87.2031C88.0859 16.9062 88.7695 16.6836 89.2539 16.2383C89.7383 15.7852 89.9805 15.1641 89.9805 14.375C89.9805 13.5703 89.75 12.9375 89.2891 12.4766C88.8359 12.0156 88.1367 11.7852 87.1914 11.7852H84.3672V16.9062ZM110.195 17.8555C110.195 19.5352 109.898 21.0078 109.305 22.2734C108.711 23.5391 107.859 24.5156 106.75 25.2031C105.648 25.8906 104.383 26.2344 102.953 26.2344C101.539 26.2344 100.277 25.8945 99.168 25.2148C98.0586 24.5352 97.1992 23.5664 96.5898 22.3086C95.9805 21.043 95.6719 19.5898 95.6641 17.9492V17.1055C95.6641 15.4258 95.9648 13.9492 96.5664 12.6758C97.1758 11.3945 98.0312 10.4141 99.1328 9.73438C100.242 9.04688 101.508 8.70312 102.93 8.70312C104.352 8.70312 105.613 9.04688 106.715 9.73438C107.824 10.4141 108.68 11.3945 109.281 12.6758C109.891 13.9492 110.195 15.4219 110.195 17.0938V17.8555ZM106.633 17.082C106.633 15.293 106.312 13.9336 105.672 13.0039C105.031 12.0742 104.117 11.6094 102.93 11.6094C101.75 11.6094 100.84 12.0703 100.199 12.9922C99.5586 13.9062 99.2344 15.25 99.2266 17.0234V17.8555C99.2266 19.5977 99.5469 20.9492 100.188 21.9102C100.828 22.8711 101.75 23.3516 102.953 23.3516C104.133 23.3516 105.039 22.8906 105.672 21.9688C106.305 21.0391 106.625 19.6875 106.633 17.9141V17.082ZM124.586 11.7852H119.359V26H115.844V11.7852H110.688V8.9375H124.586V11.7852ZM140.488 26H136.973V18.6875H130.117V26H126.602V8.9375H130.117V15.8516H136.973V8.9375H140.488V26ZM153.836 18.6055H147.086V23.1758H155.008V26H143.57V8.9375H154.984V11.7852H147.086V15.8516H153.836V18.6055ZM163.387 19.7539H160.586V26H157.07V8.9375H163.41C165.426 8.9375 166.98 9.38672 168.074 10.2852C169.168 11.1836 169.715 12.4531 169.715 14.0938C169.715 15.2578 169.461 16.2305 168.953 17.0117C168.453 17.7852 167.691 18.4023 166.668 18.8633L170.359 25.8359V26H166.586L163.387 19.7539ZM160.586 16.9062H163.422C164.305 16.9062 164.988 16.6836 165.473 16.2383C165.957 15.7852 166.199 15.1641 166.199 14.375C166.199 13.5703 165.969 12.9375 165.508 12.4766C165.055 12.0156 164.355 11.7852 163.41 11.7852H160.586V16.9062ZM182.031 22.4844H175.867L174.695 26H170.957L177.309 8.9375H180.566L186.953 26H183.215L182.031 22.4844ZM176.816 19.6367H181.082L178.938 13.25L176.816 19.6367ZM201.789 23.8438C201.156 24.6016 200.262 25.1914 199.105 25.6133C197.949 26.0273 196.668 26.2344 195.262 26.2344C193.785 26.2344 192.488 25.9141 191.371 25.2734C190.262 24.625 189.402 23.6875 188.793 22.4609C188.191 21.2344 187.883 19.793 187.867 18.1367V16.9766C187.867 15.2734 188.152 13.8008 188.723 12.5586C189.301 11.3086 190.129 10.3555 191.207 9.69922C192.293 9.03516 193.562 8.70312 195.016 8.70312C197.039 8.70312 198.621 9.1875 199.762 10.1562C200.902 11.1172 201.578 12.5195 201.789 14.3633H198.367C198.211 13.3867 197.863 12.6719 197.324 12.2188C196.793 11.7656 196.059 11.5391 195.121 11.5391C193.926 11.5391 193.016 11.9883 192.391 12.8867C191.766 13.7852 191.449 15.1211 191.441 16.8945V17.9844C191.441 19.7734 191.781 21.125 192.461 22.0391C193.141 22.9531 194.137 23.4102 195.449 23.4102C196.77 23.4102 197.711 23.1289 198.273 22.5664V19.625H195.074V17.0352H201.789V23.8438ZM214.914 18.6055H208.164V23.1758H216.086V26H204.648V8.9375H216.062V11.7852H208.164V15.8516H214.914V18.6055ZM222.742 8.9375L227.125 21.3125L231.484 8.9375H236.102V26H232.574V21.3359L232.926 13.2852L228.32 26H225.906L221.312 13.2969L221.664 21.3359V26H218.148V8.9375H222.742Z" fill="white"/>
<path d="M65 31H110V43H80L65 31Z" fill="white"/>
<path d="M237 31H192V43H222L237 31Z" fill="white"/>
<rect x="65" y="29" width="172" height="1" fill="white"/>
<path d="M122.873 38.8027C122.959 38.1777 122.635 37.7207 121.901 37.4316L120.887 37.0625L120.547 36.916C119.407 36.3965 118.873 35.666 118.948 34.7246C118.987 34.252 119.149 33.834 119.434 33.4707C119.719 33.1074 120.096 32.8281 120.565 32.6328C121.038 32.4336 121.54 32.3398 122.071 32.3516C122.586 32.3633 123.045 32.4785 123.448 32.6973C123.854 32.916 124.163 33.2227 124.373 33.6172C124.584 34.0078 124.678 34.4492 124.655 34.9414L123.547 34.9355C123.586 34.4121 123.469 34.0078 123.196 33.7227C122.922 33.4336 122.532 33.2852 122.024 33.2773C121.489 33.2695 121.041 33.3945 120.682 33.6523C120.323 33.9102 120.116 34.2617 120.061 34.707C119.983 35.2891 120.34 35.7305 121.133 36.0312L122.006 36.3418L122.446 36.5293C123.547 37.0371 124.057 37.791 123.975 38.791C123.932 39.2715 123.77 39.6875 123.489 40.0391C123.207 40.3867 122.825 40.6562 122.34 40.8477C121.86 41.0391 121.342 41.1289 120.788 41.1172C120.252 41.1133 119.762 41 119.317 40.7773C118.875 40.5508 118.54 40.2422 118.309 39.8516C118.079 39.4609 117.977 39.0176 118.004 38.5215L119.106 38.5273C119.071 39.0352 119.207 39.4395 119.516 39.7402C119.829 40.0371 120.268 40.1895 120.834 40.1973C121.401 40.2051 121.868 40.082 122.235 39.8281C122.602 39.5742 122.815 39.2324 122.873 38.8027Z" fill="white"/>
<path d="M131.557 38.2812C131.393 39.1641 130.993 39.8633 130.356 40.3789C129.723 40.8945 128.963 41.1406 128.077 41.1172C127.549 41.1055 127.088 40.9766 126.694 40.7305C126.299 40.4805 125.993 40.123 125.774 39.6582C125.555 39.1895 125.434 38.6719 125.411 38.1055C125.395 37.7852 125.409 37.4727 125.452 37.168L125.551 36.4648C125.735 35.1836 126.184 34.1738 126.899 33.4355C127.618 32.6934 128.491 32.332 129.518 32.3516C130.319 32.3672 130.954 32.627 131.422 33.1309C131.891 33.6309 132.139 34.3262 132.166 35.2168H131.071C131.02 34.0215 130.551 33.377 129.665 33.2832L129.471 33.2715C128.733 33.252 128.116 33.5273 127.62 34.0977C127.127 34.6641 126.809 35.4395 126.665 36.4238L126.536 37.3086L126.5 37.8242C126.477 38.543 126.604 39.1152 126.881 39.541C127.163 39.9629 127.579 40.1816 128.129 40.1973C128.723 40.2168 129.213 40.0742 129.6 39.7695C129.991 39.4648 130.288 38.9746 130.491 38.2988L131.557 38.2812Z" fill="white"/>
<path d="M137.674 38.7734H134.217L133.051 41H131.873L136.508 32.4688H137.475L139.163 41H138.079L137.674 38.7734ZM134.704 37.8477H137.51L136.801 33.8691L134.704 37.8477Z" fill="white"/>
<path d="M146.715 41H145.649L142.602 34.3789L141.454 41H140.346L141.829 32.4688H142.895L145.948 39.1191L147.102 32.4688H148.198L146.715 41Z" fill="white"/>
<path d="M149.967 40.0801H153.893L153.729 41H148.702L150.184 32.4688H151.291L149.967 40.0801Z" fill="white"/>
<path d="M160.127 38.7734H156.67L155.504 41H154.327L158.961 32.4688H159.928L161.616 41H160.532L160.127 38.7734ZM157.157 37.8477H159.963L159.254 33.8691L157.157 37.8477Z" fill="white"/>
<path d="M169.081 33.3945H166.426L165.108 41H164.012L165.331 33.3945H162.676L162.84 32.4688H169.245L169.081 33.3945Z" fill="white"/>
<path d="M172.01 41.1172C171.467 41.1055 170.995 40.9746 170.592 40.7246C170.194 40.4746 169.879 40.1074 169.649 39.623C169.418 39.1348 169.291 38.5879 169.268 37.9824C169.245 37.5098 169.297 36.9258 169.426 36.2305C169.555 35.5352 169.778 34.9082 170.094 34.3496C170.411 33.791 170.795 33.3438 171.248 33.0078C171.862 32.5547 172.561 32.3359 173.346 32.3516C174.178 32.3672 174.834 32.6562 175.315 33.2188C175.795 33.7773 176.053 34.5352 176.088 35.4922C176.104 35.9023 176.061 36.4238 175.959 37.0566C175.862 37.6895 175.684 38.2773 175.426 38.8203C175.172 39.3633 174.848 39.8184 174.454 40.1855C173.766 40.8262 172.952 41.1367 172.01 41.1172ZM175.004 35.7617C175.028 34.9922 174.893 34.3965 174.6 33.9746C174.307 33.5488 173.872 33.3281 173.293 33.3125C172.77 33.2969 172.301 33.4375 171.887 33.7344C171.477 34.0312 171.139 34.4766 170.873 35.0703C170.612 35.6602 170.446 36.4082 170.375 37.3145L170.358 37.6953C170.334 38.4609 170.471 39.0605 170.768 39.4941C171.065 39.9277 171.497 40.1523 172.063 40.168C172.801 40.1875 173.413 39.9219 173.897 39.3711C174.385 38.8164 174.709 38.0391 174.87 37.0391C174.948 36.5469 174.993 36.1211 175.004 35.7617Z" fill="white"/>
<path d="M180.612 37.5488H178.643L178.045 41H176.938L178.42 32.4688L180.987 32.4746C181.881 32.4785 182.563 32.7051 183.032 33.1543C183.5 33.6035 183.698 34.2148 183.623 34.9883C183.581 35.5234 183.385 35.9941 183.038 36.4004C182.694 36.8066 182.235 37.1133 181.661 37.3203L182.985 40.9238L182.979 41H181.807L180.612 37.5488ZM178.801 36.6289L180.418 36.6348C180.981 36.6348 181.456 36.4863 181.842 36.1895C182.229 35.8887 182.456 35.4883 182.522 34.9883C182.581 34.5 182.483 34.1172 182.229 33.8398C181.975 33.5625 181.588 33.416 181.069 33.4004L179.364 33.3945L178.801 36.6289Z" fill="white"/>
</g>
<defs>
<filter id="filter0_d" x="0" y="0" width="242" height="58" filterUnits="userSpaceOnUse" color-interpolation-filters="sRGB">
<feFlood flood-opacity="0" result="BackgroundImageFix"/>
<feColorMatrix in="SourceAlpha" type="matrix" values="0 0 0 0 0 0 0 0 0 0 0 0 0 0 0 0 0 0 127 0"/>
<feOffset dy="4"/>
<feGaussianBlur stdDeviation="2"/>
<feColorMatrix type="matrix" values="0 0 0 0 0 0 0 0 0 0 0 0 0 0 0 0 0 0 0.25 0"/>
<feBlend mode="normal" in2="BackgroundImageFix" result="effect1_dropShadow"/>
<feBlend mode="normal" in="SourceGraphic" in2="effect1_dropShadow" result="shape"/>
</filter>
</defs>
</svg>
